# xmcd CD database file
#
# Track frame offsets:
#	150
#	17490
#	33257
#	59900
#	96510
#
# Disc length: 1499 seconds
#
# Revision: 1
# Processed by: cddbd v1.4PL0 Copyright (c) Steve Scherf et al.
# Submitted via: CDex 1.50beta9
#
DISCID=3e05d905
DTITLE=Stevie V Feat. Nazlyn - Dirty Cash
DYEAR=1997
DGENRE=House
TTITLE0=Dirty Cash (Todd Terry Radio Mix)
TTITLE1=Dirty Cash (Blues Bass Radio Edit)
TTITLE2=Dirty Cash (Tee's Inhouse Mix)
TTITLE3=Dirty Cash (Rhythm Masters Mix)
TTITLE4=Dirty Cash (Just 4 The Fun Of It)
EXTD=YEAR: 1997
EXTT0=
EXTT1=
EXTT2=
EXTT3=
EXTT4=
PLAYORDER=
